<svg width="30" height="30" viewBox="0 0 30 30" fill="none" xmlns="http://www.w3.org/2000/svg">
<path opacity="0.2" d="M3.75 9.375H26.25V6.5625C26.25 6.31386 26.1512 6.0754 25.9754 5.89959C25.7996 5.72377 25.5611 5.625 25.3125 5.625H4.6875C4.43886 5.625 4.2004 5.72377 4.02459 5.89959C3.84877 6.0754 3.75 6.31386 3.75 6.5625V9.375Z" fill="white"/>
<path d="M25.3125 4.6875H4.6875C4.19022 4.6875 3.71331 4.88504 3.36167 5.23667C3.01004 5.58831 2.8125 6.06522 2.8125 6.5625V23.4375C2.8125 23.9348 3.01004 24.4117 3.36167 24.7633C3.71331 25.115 4.19022 25.3125 4.6875 25.3125H25.3125C25.8098 25.3125 26.2867 25.115 26.6383 24.7633C26.99 24.4117 27.1875 23.9348 27.1875 23.4375V6.5625C27.1875 6.06522 26.99 5.58831 26.6383 5.23667C26.2867 4.88504 25.8098 4.6875 25.3125 4.6875ZM25.3125 6.5625V8.4375H4.6875V6.5625H25.3125ZM25.3125 23.4375H4.6875V10.3125H25.3125V23.4375Z" fill="white"/>
<path d="M19.6875 12.1875C19.4389 12.1875 19.2004 12.2863 19.0246 12.4621C18.8488 12.6379 18.75 12.8764 18.75 13.125C18.75 14.1196 18.3549 15.0734 17.6516 15.7766C16.9484 16.4799 15.9946 16.875 15 16.875C14.0054 16.875 13.0516 16.4799 12.3483 15.7766C11.6451 15.0734 11.25 14.1196 11.25 13.125C11.25 12.8764 11.1512 12.6379 10.9754 12.4621C10.7996 12.2863 10.5611 12.1875 10.3125 12.1875C10.0639 12.1875 9.8254 12.2863 9.64959 12.4621C9.47377 12.6379 9.375 12.8764 9.375 13.125C9.375 14.6168 9.96763 16.0476 11.0225 17.1025C12.0774 18.1574 13.5082 18.75 15 18.75C16.4918 18.75 17.9226 18.1574 18.9775 17.1025C20.0324 16.0476 20.625 14.6168 20.625 13.125C20.625 12.8764 20.5262 12.6379 20.3504 12.4621C20.1746 12.2863 19.9361 12.1875 19.6875 12.1875Z" fill="white"/>
</svg>
